<?xml version="1.0" standalone="no"?>
<!DOCTYPE svg PUBLIC "-//W3C//DTD SVG 20010904//EN"
 "http://www.w3.org/TR/2001/REC-SVG-20010904/DTD/svg10.dtd">
<svg version="1.0" xmlns="http://www.w3.org/2000/svg"
 width="512.000000pt" height="512.000000pt" viewBox="0 0 512.000000 512.000000"
 preserveAspectRatio="xMidYMid meet">
<metadata>
Created by potrace 1.14, written by Peter Selinger 2001-2017
</metadata>
<g transform="translate(0.000000,512.000000) scale(0.100000,-0.100000)"
fill="#000000" stroke="none">
<path d="M2370 4569 c-25 -3 -67 -9 -95 -12 -154 -19 -414 -96 -557 -167 -43
-21 -78 -35 -78 -32 0 4 -4 2 -8 -4 -4 -6 -34 -25 -66 -43 -51 -28 -201 -126
-216 -141 -3 -3 -27 -23 -55 -45 -361 -287 -638 -758 -709 -1205 -3 -19 -8
-45 -10 -58 -31 -150 -24 -475 14 -667 6 -27 12 -59 14 -70 25 -130 108 -354
187 -500 53 -101 162 -263 229 -345 57 -68 173 -183 234 -233 22 -18 44 -37
50 -42 78 -74 317 -219 461 -281 17 -7 46 -19 65 -27 100 -43 349 -107 470
-122 120 -14 336 -20 425 -10 209 22 277 35 460 92 221 69 482 213 660 363
111 94 246 233 311 321 30 41 58 79 62 84 4 6 26 39 48 75 169 271 266 555
300 880 7 66 7 328 0 380 -4 25 -11 79 -17 120 -74 535 -402 1047 -870 1359
-250 167 -520 271 -822 317 -107 17 -410 25 -487 13z"/>
</g>
</svg>
